# xmcd CD database file
#
# Track frame offsets:
#	150
#	13077
#	24469
#	38229
#	53845
#	66258
#	81042
#	94644
#	108456
#	123781
#	137518
#	149179
#	162721
#	175541
#	191169
#	205033
#	218476
#	232138
#
# Disc length: 3244 seconds
#
# Revision: 0
# Processed by: cddbd v1.5PL3 Copyright (c) Steve Scherf et al.
# Submitted via: CDex 1.51
#
DISCID=fe0caa12
DTITLE=Bix Biederbecke - In a Mist (Legends of Jazz)
DYEAR=2003
DGENRE=Jazz
TTITLE0=At the Jazz Band Ball
TTITLE1=Coquette
TTITLE2=Wa-Da-Da
TTITLE3=Mississipi Mud
TTITLE4=Ona Mist (Bixology)
TTITLE5=Goose Pimples
TTITLE6=Deep Down South
TTITLE7=Trumbology
TTITLE8=Forget Me Not
TTITLE9=Thou Swell
TTITLE10=Tiger Rag
TTITLE11=Hooiser Sweetheart
TTITLE12=Davenport Blues
TTITLE13=Rockin' Chair
TTITLE14=Jazz Me Blues
TTITLE15=Singin' the Blues
TTITLE16=Dardanella
TTITLE17=Copenhagen
EXTD=YEAR: 2003
EXTT0=
EXTT1=
EXTT2=
EXTT3=
EXTT4=
EXTT5=
EXTT6=
EXTT7=
EXTT8=
EXTT9=
EXTT10=
EXTT11=
EXTT12=
EXTT13=
EXTT14=
EXTT15=
EXTT16=
EXTT17=
PLAYORDER=
